<svg width="126" height="30" viewBox="0 0 126 30" fill="none" xmlns="http://www.w3.org/2000/svg">
<g clip-path="url(#clip0)">
<path fill-rule="evenodd" clip-rule="evenodd" d="M36.1752 23.5172L31.1324 14.7828C30.7713 14.1574 29.8686 14.1574 29.5075 14.7828L24.4647 23.5172C24.1036 24.1426 24.555 24.9244 25.2771 24.9244H35.3628C36.0849 24.9244 36.5363 24.1427 36.1752 23.5172ZM35.1947 12.4375C33.0281 8.68489 27.6118 8.6849 25.4452 12.4375L20.4024 21.1719C18.2359 24.9244 20.9441 29.6151 25.2771 29.6151H35.3628C39.6958 29.6151 42.404 24.9244 40.2375 21.1719L35.1947 12.4375Z" fill="#2F80ED"/>
<path fill-rule="evenodd" clip-rule="evenodd" d="M26.6734 23.3664L16.5616 5.85216C16.2005 5.22674 15.2978 5.22673 14.9367 5.85217L4.82479 23.3664C4.46371 23.9918 4.91507 24.7736 5.63725 24.7736H25.861C26.5832 24.7736 27.0345 23.9919 26.6734 23.3664ZM20.6238 3.50681C18.4573 -0.245762 13.0409 -0.245757 10.8744 3.50681L0.762522 21.0211C-1.40403 24.7736 1.30416 29.4644 5.63725 29.4644H25.861C30.1941 29.4644 32.9023 24.7736 30.7357 21.0211L20.6238 3.50681Z" fill="#2F80ED"/>
<path d="M57.4037 19.9648C57.2971 19.9648 57.2011 19.9275 57.1157 19.8528C57.0411 19.7675 57.0037 19.6715 57.0037 19.5648V9.16484C57.0037 9.04751 57.0411 8.95151 57.1157 8.87684C57.2011 8.80218 57.2971 8.76484 57.4037 8.76484H59.1317C59.3877 8.76484 59.5744 8.88218 59.6917 9.11684L62.5077 14.1568L65.3237 9.11684C65.4411 8.88218 65.6277 8.76484 65.8837 8.76484H67.5957C67.7131 8.76484 67.8091 8.80218 67.8837 8.87684C67.9691 8.95151 68.0117 9.04751 68.0117 9.16484V19.5648C68.0117 19.6822 67.9691 19.7782 67.8837 19.8528C67.8091 19.9275 67.7131 19.9648 67.5957 19.9648H65.6917C65.5744 19.9648 65.4731 19.9275 65.3877 19.8528C65.3131 19.7782 65.2757 19.6822 65.2757 19.5648V13.5648L63.4837 16.9088C63.3451 17.1542 63.1584 17.2768 62.9237 17.2768H62.0917C61.9531 17.2768 61.8411 17.2448 61.7557 17.1808C61.6704 17.1168 61.5957 17.0262 61.5317 16.9088L59.7237 13.5648V19.5648C59.7237 19.6715 59.6864 19.7675 59.6117 19.8528C59.5371 19.9275 59.4411 19.9648 59.3237 19.9648H57.4037ZM71.6297 23.0048C71.5337 23.0048 71.4537 22.9728 71.3897 22.9088C71.3257 22.8448 71.2937 22.7648 71.2937 22.6688C71.2937 22.5942 71.3097 22.5248 71.3417 22.4608L72.5897 19.4528L69.5177 12.1888C69.4857 12.1035 69.4697 12.0395 69.4697 11.9968C69.4911 11.9008 69.5337 11.8208 69.5977 11.7568C69.6617 11.6822 69.7417 11.6448 69.8377 11.6448H71.6617C71.8857 11.6448 72.0404 11.7568 72.1257 11.9808L73.9497 16.6368L75.8217 11.9808C75.9284 11.7568 76.0884 11.6448 76.3017 11.6448H78.0937C78.1897 11.6448 78.2697 11.6822 78.3337 11.7568C78.4084 11.8208 78.4457 11.8955 78.4457 11.9808C78.4457 12.0235 78.4297 12.0928 78.3977 12.1888L73.8697 22.6688C73.7844 22.8928 73.6244 23.0048 73.3897 23.0048H71.6297ZM83.2006 19.9648C83.0939 19.9648 82.9979 19.9275 82.9126 19.8528C82.8379 19.7675 82.8006 19.6715 82.8006 19.5648V9.16484C82.8006 9.04751 82.8379 8.95151 82.9126 8.87684C82.9979 8.80218 83.0939 8.76484 83.2006 8.76484H84.9286C85.1846 8.76484 85.3713 8.88218 85.4886 9.11684L88.3046 14.1568L91.1206 9.11684C91.2379 8.88218 91.4246 8.76484 91.6806 8.76484H93.3926C93.5099 8.76484 93.6059 8.80218 93.6806 8.87684C93.7659 8.95151 93.8086 9.04751 93.8086 9.16484V19.5648C93.8086 19.6822 93.7659 19.7782 93.6806 19.8528C93.6059 19.9275 93.5099 19.9648 93.3926 19.9648H91.4886C91.3713 19.9648 91.2699 19.9275 91.1846 19.8528C91.1099 19.7782 91.0726 19.6822 91.0726 19.5648V13.5648L89.2806 16.9088C89.1419 17.1542 88.9553 17.2768 88.7206 17.2768H87.8886C87.7499 17.2768 87.6379 17.2448 87.5526 17.1808C87.4673 17.1168 87.3926 17.0262 87.3286 16.9088L85.5206 13.5648V19.5648C85.5206 19.6715 85.4833 19.7675 85.4086 19.8528C85.3339 19.9275 85.2379 19.9648 85.1206 19.9648H83.2006ZM99.7146 20.1248C98.4346 20.1248 97.4266 19.7782 96.6906 19.0848C95.9546 18.3915 95.5706 17.3835 95.5386 16.0608V15.5008C95.5813 14.2422 95.9706 13.2608 96.7066 12.5568C97.4533 11.8422 98.4506 11.4848 99.6986 11.4848C100.605 11.4848 101.368 11.6715 101.987 12.0448C102.616 12.4075 103.085 12.9088 103.395 13.5488C103.715 14.1888 103.875 14.9248 103.875 15.7568V16.1408C103.875 16.2475 103.837 16.3435 103.763 16.4288C103.688 16.5035 103.592 16.5408 103.475 16.5408H98.3546V16.6528C98.3759 17.1542 98.4986 17.5595 98.7226 17.8688C98.9466 18.1782 99.2719 18.3328 99.6986 18.3328C99.9653 18.3328 100.184 18.2795 100.355 18.1728C100.525 18.0555 100.68 17.9168 100.819 17.7568C100.915 17.6395 100.989 17.5702 101.043 17.5488C101.107 17.5168 101.203 17.5008 101.331 17.5008H103.315C103.411 17.5008 103.491 17.5328 103.555 17.5968C103.629 17.6502 103.667 17.7248 103.667 17.8208C103.667 18.0982 103.507 18.4182 103.187 18.7808C102.877 19.1435 102.424 19.4582 101.827 19.7248C101.229 19.9915 100.525 20.1248 99.7146 20.1248ZM101.059 14.9568V14.9248C101.059 14.4022 100.936 13.9915 100.691 13.6928C100.456 13.3835 100.125 13.2288 99.6986 13.2288C99.2826 13.2288 98.9519 13.3835 98.7066 13.6928C98.4719 13.9915 98.3546 14.4022 98.3546 14.9248V14.9568H101.059ZM109.215 20.1248C107.935 20.1248 106.927 19.7782 106.191 19.0848C105.455 18.3915 105.071 17.3835 105.039 16.0608V15.5008C105.081 14.2422 105.471 13.2608 106.207 12.5568C106.953 11.8422 107.951 11.4848 109.199 11.4848C110.105 11.4848 110.868 11.6715 111.487 12.0448C112.116 12.4075 112.585 12.9088 112.895 13.5488C113.215 14.1888 113.375 14.9248 113.375 15.7568V16.1408C113.375 16.2475 113.337 16.3435 113.263 16.4288C113.188 16.5035 113.092 16.5408 112.975 16.5408H107.855V16.6528C107.876 17.1542 107.999 17.5595 108.223 17.8688C108.447 18.1782 108.772 18.3328 109.199 18.3328C109.465 18.3328 109.684 18.2795 109.855 18.1728C110.025 18.0555 110.18 17.9168 110.319 17.7568C110.415 17.6395 110.489 17.5702 110.543 17.5488C110.607 17.5168 110.703 17.5008 110.831 17.5008H112.815C112.911 17.5008 112.991 17.5328 113.055 17.5968C113.129 17.6502 113.167 17.7248 113.167 17.8208C113.167 18.0982 113.007 18.4182 112.687 18.7808C112.377 19.1435 111.924 19.4582 111.327 19.7248C110.729 19.9915 110.025 20.1248 109.215 20.1248ZM110.559 14.9568V14.9248C110.559 14.4022 110.436 13.9915 110.191 13.6928C109.956 13.3835 109.625 13.2288 109.199 13.2288C108.783 13.2288 108.452 13.3835 108.207 13.6928C107.972 13.9915 107.855 14.4022 107.855 14.9248V14.9568H110.559ZM119.099 19.9648C116.891 19.9648 115.787 18.9142 115.787 16.8128V13.7408H114.539C114.422 13.7408 114.321 13.7035 114.235 13.6288C114.161 13.5542 114.123 13.4582 114.123 13.3408V12.0448C114.123 11.9275 114.161 11.8315 114.235 11.7568C114.321 11.6822 114.422 11.6448 114.539 11.6448H115.787V9.00484C115.787 8.88751 115.825 8.79151 115.899 8.71684C115.985 8.64218 116.081 8.60484 116.187 8.60484H118.043C118.161 8.60484 118.257 8.64218 118.331 8.71684C118.406 8.79151 118.443 8.88751 118.443 9.00484V11.6448H120.443C120.561 11.6448 120.657 11.6822 120.731 11.7568C120.817 11.8315 120.859 11.9275 120.859 12.0448V13.3408C120.859 13.4582 120.817 13.5542 120.731 13.6288C120.657 13.7035 120.561 13.7408 120.443 13.7408H118.443V16.5888C118.443 17.3782 118.747 17.7728 119.355 17.7728H120.587C120.705 17.7728 120.801 17.8102 120.875 17.8848C120.95 17.9595 120.987 18.0555 120.987 18.1728V19.5648C120.987 19.6715 120.95 19.7675 120.875 19.8528C120.801 19.9275 120.705 19.9648 120.587 19.9648H119.099Z" fill="#4D4D4D"/>
</g>
<defs>
<clipPath id="clip0">
<rect width="126" height="30" fill="white"/>
</clipPath>
</defs>
</svg>
